<svg xmlns="http://www.w3.org/2000/svg" xmlns:xlink="http://www.w3.org/1999/xlink" version="1.1" x="0px" y="0px" viewBox="-500 -500 1024 1024" xml:space="preserve" width="1024" height="1024">
  <g>
    <g>
      <g id="Layer_2">
        <g>
          <path d="M307.68 -213.28V331.573C307.68 402.827 272.267 438.667 201.44 438.667H-177.44C-247.84 438.667 -283.68 402.827 -283.68 331.573V-213.28C-283.68 -284.533 -248.267 -320.8 -177.44 -320.8H-165.92C-166.347 -318.24 -166.347 -315.68 -166.347 -312.693V-275.573C-166.347 -234.187 -137.333 -205.173 -96.8 -205.173H121.227C161.76 -205.173 190.773 -234.187 190.773 -275.573V-312.693C190.773 -315.253 190.773 -318.24 190.347 -320.8H201.867C272.267 -320.8 307.68 -284.533 307.68 -213.28Z" fill="#00FF00"/>
            <path d="M-96.8 -244H121.227C140.427 -244 152.373 -255.947 152.373 -276V-312.693C152.373 -332.747 140.427 -344.693 121.227 -344.693H85.813C83.68 -383.093 51.253 -414.667 12 -414.667C-27.253 -414.667 -59.68 -383.093 -61.387 -344.693H-96.8C-116 -344.693 -127.947 -332.747 -127.947 -312.693V-275.573C-127.947 -255.947 -116.427 -244 -96.8 -244ZM12 -310.987C-5.493 -310.987 -19.573 -325.493 -19.573 -342.56C-19.573 -360.053 -5.493 -374.133 12 -374.133C29.493 -374.133 43.573 -360.053 43.573 -342.56C43.573 -325.493 29.493 -310.987 12 -310.987Z" fill="#00FF00"/>
            </g>
          </g>
        </g>
      </g>
    </svg>