<svg xmlns="http://www.w3.org/2000/svg" xmlns:xlink="http://www.w3.org/1999/xlink" version="1.1" viewBox="-500.3164 -498.1758 1024 1024" width="1024" height="1024">
  <g>
    <g>
      <path d="M383.331 -340.481L383.331 184.107C383.331 258.758 345.715 296.661 271.646 296.661L248.5 296.661L248.5 64.027C248.5 18.887 241.267 -14.386 202.207 -54.027L-4.375 -263.515C-47.775 -307.785 -77.286 -316.176 -123 -316.176L-193.886 -316.176L-193.886 -340.481C-193.886 -415.422 -156.563 -453.038 -82.494 -453.038L271.646 -453.038C345.715 -453.038 383.331 -415.422 383.331 -340.481ZM6.04 -378.675C-9.004 -378.675 -16.237 -368.837 -16.237 -358.132L-16.237 -350.898C-16.237 -340.192 -9.004 -330.354 6.04 -330.354L183.112 -330.354C198.448 -330.354 205.392 -340.192 205.392 -350.898L205.392 -358.132C205.392 -368.837 198.448 -378.675 183.112 -378.675Z" fill="#FF1A1A" transform="translate(7.521834, 0.578686)"/>
        <path d="M-55.586 17.732L195.263 17.732C191.793 4.998 183.69 -7.153 169.224 -21.909L-37.069 -231.108C-51.535 -245.865 -63.977 -255.992 -76.707 -259.464L-76.707 -3.39C-76.707 10.787 -69.763 17.732 -55.586 17.732Z" fill="#FF1A1A" transform="translate(7.521834, 0.578686)"/>
          <path d="M-375.007 366.975C-375.007 441.914 -337.394 479.529 -263.326 479.529L90.815 479.529C164.884 479.529 202.207 441.625 202.207 366.975L202.207 64.027L-56.165 64.027C-101.3 64.027 -123 42.328 -123 -2.813L-123 -270.17L-263.326 -270.17C-337.105 -270.17 -375.007 -231.976 -375.007 -157.614Z" fill="#FF1A1A" transform="translate(7.521834, 0.578686)" id="Path_1-copy"/>
          </g>
        </g>
      </svg>