<svg xmlns="http://www.w3.org/2000/svg" xmlns:xlink="http://www.w3.org/1999/xlink" version="1.1" x="0px" y="0px" viewBox="-500 -500 1024 1024" xml:space="preserve" width="1024" height="1024">
  <g>
    <g>
      <path d="M-201.333 438.667L225.333 438.667C304.693 438.667 344.373 397.707 344.373 318.347L344.373 -53.28L57.227 -53.28C9.013 -53.28 -14.027 -76.32 -14.027 -124.96L-14.027 -414.667L-201.333 -414.667C-279.84 -414.667 -320.373 -374.133 -320.373 -294.347L-320.373 317.92C-320.373 398.133 -280.267 438.667 -201.333 438.667Z" fill="#007AFF" id="body"/>
        <path d="M59.36 -102.773L339.68 -102.773C337.12 -117.28 326.88 -131.36 310.24 -147.573L80.693 -380.107C64.907 -396.32 49.973 -407.413 35.893 -409.973L35.893 -126.24C35.893 -110.453 43.573 -102.773 59.36 -102.773Z" fill="#007AFF" id="corner"/>
        </g>
      </g>
    </svg>