<svg xmlns="http://www.w3.org/2000/svg" xmlns:xlink="http://www.w3.org/1999/xlink" version="1.1" x="0px" y="0px" viewBox="-500 -500 1024 1024" xml:space="preserve" width="1024" height="1024">
  <g>
    <g id="Layer_2">
      <g>
        <path d="M-300.32 355.04H333.28C400.693 355.04 438.667 316.64 438.667 241.973V-148C438.667 -223.093 400.267 -261.067 324.32 -261.067H-56.267C-84 -261.067 -99.36 -267.04 -118.56 -284.107L-140.747 -302.88C-165.493 -324.64 -183.84 -331.04 -221.387 -331.04H-314.4C-378.827 -331.04 -414.667 -295.2 -414.667 -223.52V241.973C-414.667 316.64 -376.267 355.04 -300.32 355.04ZM-350.24 -139.893V-157.387C-350.24 -181.28 -333.6 -196.64 -303.733 -196.64H326.453C356.747 -196.64 372.96 -181.28 372.96 -157.387V-139.893H-350.24Z" fill="#FF00FF"/>
        </g>
      </g>
    </g>
  </svg>