<svg xmlns="http://www.w3.org/2000/svg" id="SVG_Editor" viewBox="0 0 1024 1024">
  <g id="Boarder">
    <path id="light_grey" fill="#c4c4c4" d="M1023.916 330.274c-.069-11.996-.207-23.99-.532-35.983-.708-26.134-2.246-52.494-6.892-78.338-4.713-26.217-12.404-50.618-24.529-74.438a250.4 250.4 0 0 0-46.065-63.413 250.4 250.4 0 0 0-63.413-46.065c-23.82-12.125-48.221-19.816-74.438-24.529-25.843-4.646-52.204-6.184-78.338-6.892-11.993-.325-23.987-.463-35.983-.532C681.159.005 668.593 0 656.027 0H367.973c-12.567 0-25.131.005-37.699.084-11.996.069-23.99.207-35.983.532-26.134.708-52.494 2.246-78.338 6.892-26.217 4.713-50.618 12.404-74.438 24.529a250.4 250.4 0 0 0-63.413 46.065 250.4 250.4 0 0 0-46.065 63.413c-12.125 23.82-19.816 48.221-24.529 74.438-4.646 25.843-6.184 52.204-6.892 78.338-.325 11.993-.463 23.987-.532 35.983C-.006 344.517 0 358.757 0 373v278c0 14.243-.006 28.483.084 42.726.069 11.996.207 23.99.532 35.983.708 26.134 2.246 52.494 6.892 78.338 4.713 26.217 12.404 50.618 24.529 74.438a250.4 250.4 0 0 0 46.065 63.413 250.4 250.4 0 0 0 63.413 46.065c23.82 12.125 48.221 19.816 74.438 24.529 25.843 4.646 52.204 6.184 78.338 6.892 11.993.325 23.986.463 35.983.532 12.567.079 25.133.084 37.699.084h288.054c12.567 0 25.132-.005 37.699-.084 11.996-.069 23.99-.207 35.983-.532 26.134-.708 52.494-2.246 78.338-6.892 26.217-4.713 50.618-12.404 74.438-24.529a250.4 250.4 0 0 0 63.413-46.065 250.4 250.4 0 0 0 46.065-63.413c12.125-23.82 19.816-48.221 24.529-74.438 4.646-25.843 6.184-52.204 6.892-78.338.325-11.993.463-23.987.532-35.983.09-14.243.084-28.483.084-42.726V373c0-14.243.006-28.483-.084-42.726"/>
    <path id="dark_grey" fill="#767676" d="M983.76 330.527c-.08-13.889-.245-25.051-.518-35.148-.59-21.791-1.798-47.423-6.273-72.321-4.203-23.382-11.004-44.096-20.793-63.327a209.7 209.7 0 0 0-38.673-53.234 209.7 209.7 0 0 0-53.234-38.673c-19.23-9.788-39.944-16.59-63.326-20.793-24.897-4.476-50.53-5.683-72.321-6.274-10.099-.274-21.26-.438-35.126-.518-12.194-.077-24.136-.083-37.367-.083H367.874c-13.23 0-25.173.006-37.345.083-13.887.08-25.049.245-35.149.518-21.79.591-47.423 1.798-72.32 6.274-23.382 4.203-44.096 11.005-63.326 20.793a209.7 209.7 0 0 0-53.234 38.673 209.7 209.7 0 0 0-38.673 53.234c-9.789 19.23-16.59 39.945-20.793 63.326-4.475 24.896-5.683 50.53-6.273 72.321-.274 10.111-.439 21.272-.518 35.125-.084 13.312-.084 26.887-.083 40.015v282.961c0 13.128 0 26.703.083 39.992.08 13.876.244 25.037.518 35.149.591 21.791 1.798 47.425 6.273 72.321 4.203 23.382 11.005 44.096 20.793 63.326a209.7 209.7 0 0 0 38.673 53.234 209.7 209.7 0 0 0 53.234 38.673c19.23 9.788 39.944 16.59 63.326 20.793 24.897 4.476 50.53 5.683 72.321 6.274 10.111.274 21.273.439 35.125.518 12.213.077 24.224.083 37.536.083h287.919c13.311 0 25.322-.006 37.513-.083 13.876-.08 25.037-.244 35.149-.518 21.791-.591 47.424-1.798 72.321-6.274 23.382-4.203 44.096-11.005 63.326-20.793a209.7 209.7 0 0 0 53.234-38.673 209.7 209.7 0 0 0 38.673-53.234c9.788-19.23 16.59-39.945 20.793-63.326 4.476-24.898 5.683-50.531 6.273-72.321.274-10.098.438-21.259.518-35.127.084-13.309.083-26.882.083-40.008V370.512c0-13.126 0-26.699-.083-39.986Z"/>
    <path id="top_grey" fill="#999" d="M1016.359 294.482c-.624-23.027-1.918-50.217-6.784-77.285-4.785-26.62-12.595-50.332-23.875-72.493a242.8 242.8 0 0 0-44.771-61.632 242.8 242.8 0 0 0-61.632-44.771c-22.161-11.28-45.874-19.09-72.493-23.875-27.066-4.865-54.256-6.16-77.285-6.784-10.346-.28-21.732-.449-35.833-.53-12.294-.078-24.329-.084-37.659-.084H367.973c-13.33 0-25.364.006-37.655.084-14.105.081-25.491.25-35.837.53-23.028.624-50.219 1.918-77.285 6.784-26.619 4.785-50.332 12.595-72.493 23.875a242.8 242.8 0 0 0-61.632 44.771A242.8 242.8 0 0 0 38.3 144.704c-11.281 22.162-19.09 45.874-23.875 72.493-4.866 27.067-6.16 54.257-6.784 77.285-.281 10.353-.449 21.74-.53 35.833-.085 13.404-.084 27.039-.084 40.225v282.921c0 13.186 0 26.821.084 40.221.081 14.098.249 25.484.53 35.837.624 23.028 1.918 50.217 6.784 77.285 4.785 26.619 12.595 50.332 23.875 72.493a242.8 242.8 0 0 0 44.771 61.632 242.8 242.8 0 0 0 61.632 44.771c22.162 11.281 45.875 19.09 72.493 23.875 27.067 4.866 54.257 6.16 77.285 6.784 10.353.281 21.739.449 35.833.53 12.294.078 24.329.084 37.659.084h288.054c13.33 0 25.364-.006 37.655-.084 14.097-.081 25.484-.249 35.837-.53 23.028-.624 50.217-1.918 77.285-6.784 26.619-4.785 50.332-12.595 72.493-23.875a242.8 242.8 0 0 0 61.632-44.771 242.8 242.8 0 0 0 44.771-61.632c11.28-22.161 19.09-45.874 23.875-72.493 4.866-27.068 6.16-54.257 6.784-77.285.28-10.344.449-21.73.53-35.833.085-13.403.084-27.037.084-40.221V370.537c0-13.185 0-26.818-.084-40.217-.081-14.106-.25-25.492-.53-35.837ZM983.843 373v280.486c0 13.126 0 26.699-.083 40.008-.08 13.867-.245 25.029-.518 35.127-.59 21.79-1.798 47.422-6.273 72.321-4.203 23.382-11.005 44.096-20.793 63.326a209.7 209.7 0 0 1-38.673 53.234 209.7 209.7 0 0 1-53.234 38.673c-19.23 9.788-39.944 16.59-63.326 20.793-24.897 4.476-50.53 5.683-72.321 6.274-10.111.274-21.273.439-35.149.518-12.191.077-24.201.083-37.513.083H368.041c-13.312 0-25.323-.006-37.536-.083-13.852-.08-25.014-.244-35.125-.518-21.791-.591-47.424-1.798-72.321-6.274-23.382-4.203-44.096-11.005-63.326-20.793a209.7 209.7 0 0 1-53.234-38.673 209.7 209.7 0 0 1-38.673-53.234c-9.788-19.23-16.59-39.945-20.793-63.326-4.475-24.896-5.683-50.53-6.273-72.321-.274-10.111-.439-21.273-.518-35.149-.084-13.289-.084-26.864-.083-39.992V370.519c0-13.128 0-26.703.083-40.015.08-13.853.244-25.014.518-35.125.591-21.792 1.798-47.425 6.273-72.321 4.203-23.381 11.004-44.096 20.793-63.326a209.7 209.7 0 0 1 38.673-53.234 209.7 209.7 0 0 1 53.234-38.673c19.23-9.788 39.944-16.59 63.326-20.793 24.897-4.476 50.53-5.683 72.32-6.274 10.099-.274 21.261-.438 35.149-.518 12.173-.077 24.115-.083 37.345-.083h288.255c13.231 0 25.173.006 37.367.083 13.866.08 25.028.245 35.126.518 21.791.591 47.424 1.798 72.321 6.274 23.382 4.203 44.096 11.005 63.326 20.793a209.7 209.7 0 0 1 53.234 38.673 209.7 209.7 0 0 1 38.673 53.234c9.789 19.231 16.59 39.945 20.793 63.327 4.476 24.898 5.683 50.53 6.273 72.321.274 10.097.438 21.258.518 35.148.084 13.287.083 26.86.083 39.986z"/>
  </g>
  <g id="Checkerboard">
    <path id="checkerboard_back" fill="#2a292e" d="M373 47.184h-5.179c-13.199 0-25.112.006-37.249.083-13.83.079-24.943.243-35.003.516-21.528.583-46.831 1.772-71.268 6.165-22.696 4.08-42.773 10.667-61.382 20.139a202.7 202.7 0 0 0-51.453 37.379 202.7 202.7 0 0 0-37.379 51.453c-9.472 18.609-16.06 38.687-20.139 61.382-4.393 24.435-5.582 49.739-6.165 71.269-.273 10.059-.437 21.173-.516 34.975-.084 13.287-.084 26.843-.083 39.952v283.006c0 13.11 0 26.666.083 39.924.079 13.83.243 24.944.516 35.003.583 21.529 1.772 46.833 6.165 71.268 4.08 22.696 10.667 42.773 20.139 61.382a202.7 202.7 0 0 0 37.379 51.453 202.7 202.7 0 0 0 51.453 37.379c18.608 9.472 38.686 16.059 61.381 20.139 24.438 4.393 49.74 5.582 71.268 6.165 10.06.273 21.173.437 34.975.516 12.181.077 24.167.083 37.452.083h288.006c13.284 0 25.269-.006 37.424-.083 13.83-.079 24.943-.243 35.003-.516 21.528-.583 46.831-1.772 71.268-6.165 22.696-4.08 42.774-10.667 61.382-20.139a202.7 202.7 0 0 0 51.453-37.379 202.7 202.7 0 0 0 37.379-51.453c9.472-18.609 16.06-38.687 20.139-61.382 4.393-24.438 5.582-49.74 6.165-71.268.273-10.06.437-21.173.516-34.976.084-13.314.084-26.898.083-40.035V370.58c0-13.137 0-26.721-.083-40.008-.079-13.829-.243-24.943-.516-35.002-.583-21.528-1.772-46.831-6.165-71.268-4.079-22.696-10.667-42.774-20.139-61.382a202.7 202.7 0 0 0-37.379-51.453 202.7 202.7 0 0 0-51.453-37.379c-18.609-9.472-38.687-16.06-61.382-20.139-24.437-4.393-49.74-5.582-71.268-6.165-10.06-.273-21.173-.437-34.975-.516-12.163-.077-24.077-.083-37.276-.083H372.998Z"/>
    <path id="checkerboard_front" fill="#222126" d="M544.993 552.408h68.267v68.267h-68.267zm-68.267-136.534h-68.267v68.267h68.267zm409.6 409.6h68.267v-68.267h-68.267zM408.459 552.408v68.267h68.267v-68.267zm568.273 141.047c.009-1.499.014-3.009.022-4.514h-22.162v68.267h20.372c.651-10.027 1.007-19.737 1.251-28.777.273-10.06.437-21.173.516-34.976ZM408.459 347.608h-68.267v68.267h68.267zm-136.533 204.8v68.267h68.267v-68.267zm341.333 341.333v68.267h68.267v-68.267zM340.193 620.674v68.267h68.267v-68.267zm0-204.8h-68.267v68.267h68.267zm136.533 477.867v68.267h68.267v-68.267zm204.8-477.867v-68.267h-68.267v68.267zM408.459 688.941v68.267h68.267v-68.267zm409.6 204.8h68.267v-68.267h-68.267zM476.726 552.408h68.267v-68.267h-68.267zm136.533-204.8v-68.267h-68.267v68.267zm136.534 614.4h68.267v-68.267h-68.267zM476.726 279.341h-68.267v68.267h68.267zm136.533 273.067h68.267v-68.267h-68.267zM67.126 845.857v-20.382h-7.127a212 212 0 0 0 7.127 20.382m-19.88-156.916c.007 1.495.012 2.997.022 4.486.079 13.83.243 24.944.516 35.003.245 9.04.601 18.75 1.252 28.778h18.091v-68.267zm566.013-204.8v-68.267h-68.267v68.267zM47.184 552.408v68.267h19.942v-68.267zm0-136.534v68.267h19.942v-68.267zm156.475 549.579v-3.446H192.09a223 223 0 0 0 11.569 3.446M56.686 211.074h10.44v-32.932c-4.256 10.411-7.718 21.33-10.44 32.932m-8.334 68.267a927 927 0 0 0-.568 16.229c-.273 10.059-.437 21.173-.516 34.975-.036 5.657-.054 11.363-.066 17.063h19.924v-68.267zm77.433-180.888a203.2 203.2 0 0 0-34.748 36.874v7.481h44.355V98.453zm706.124 863.555h-13.85v4.038a224 224 0 0 0 13.85-4.038m80.624-49.475a204 204 0 0 0 14.725-16.426v-2.366h-40.933v40.904a203 203 0 0 0 26.207-22.112Zm51.468-87.059h-9.408v25.746c3.648-8.242 6.774-16.795 9.408-25.746M544.993 976.816h68.267v-14.808h-68.267zm-136.534 0h68.267v-14.808h-68.267zm273.067-.029c3.982-.012 7.934-.029 11.902-.054 13.83-.079 24.943-.243 35.003-.516 6.793-.184 13.963-.429 21.362-.815v-13.393h-68.267zm-409.6-1.513c8.206.459 16.156.739 23.644.942 10.06.273 21.173.437 34.975.516 3.22.02 6.427.036 9.648.047v-14.772h-68.267zm-160.459-62.741a203 203 0 0 0 23.925 20.478v-39.27H94.866a204 204 0 0 0 16.601 18.792m638.326-428.392v-68.267h-68.267v68.267zm227.023 136.533v-68.267h-22.223v68.267zm0-136.533v-68.267h-22.223v68.267zm-636.623 0v68.267h68.267v-68.267zm136.533 204.8h68.267v-68.267h-68.267zm68.267-341.333h-68.267v68.267h68.267zm431.805 0c-.012-5.694-.03-11.392-.066-17.036-.079-13.829-.243-24.943-.516-35.002a928 928 0 0 0-.568-16.229h-21.056v68.267zM476.726 47.184h-68.267v27.357h68.267zm136.533 0h-68.267v27.357h68.267zM954.592 172.78v38.295h12.722c-3.193-13.61-7.404-26.281-12.722-38.295M340.193 47.22c-3.209.012-6.407.027-9.62.047-13.83.079-24.943.243-35.003.516-7.488.203-15.438.483-23.644.942v25.816h68.267zM169.526 70.88v3.661h34.133V58.546c-12.038 3.237-23.344 7.327-34.133 12.333Zm580.267-22.281c-7.399-.386-14.569-.631-21.362-.815-10.06-.273-21.173-.437-34.975-.516-3.984-.025-7.945-.042-11.929-.055v27.328h68.267V48.599Zm184.31 88.314a203 203 0 0 0-21.57-25.446 204 204 0 0 0-18.579-16.436h-7.628v47.778h47.777zM861.08 74.088c-13.429-6.836-27.63-12.161-43.021-16.134v16.588h43.891c-.291-.15-.578-.305-.87-.453Zm-111.287 273.52v-68.267h-68.267v68.267zm-409.6-204.8h-68.267v68.267h68.267zm136.533 68.266v-68.267h-68.267v68.267zm341.333 409.6h68.267v-68.267h-68.267zm-546.133-409.6h-68.267v68.267h68.267zm-68.267 68.267h-68.267v68.267h68.267zm409.6-68.267v-68.267h-68.267v68.267zm204.8-68.266V74.541h-68.267v68.267zm-409.6 0V74.541h-68.267v68.267zm341.334 68.266v-68.267h-68.267v68.267zm68.266 273.067h68.267v-68.267h-68.267zm68.267-136.533v-68.267h-68.267v68.267zm0-136.534v-68.267h-68.267v68.267zm-341.333-68.266V74.541h-68.267v68.267zm273.066 136.533v-68.267h-68.267v68.267zM681.526 142.808V74.541h-68.267v68.267zM544.993 825.474v68.267h68.267v-68.267zm341.333-273.066h68.267v-68.267h-68.267zM203.659 415.874h-68.267v68.267h68.267zm682.667 273.067h68.267v-68.267h-68.267zM749.793 825.474h68.267v-68.267h-68.267zm-68.267 68.267h68.267v-68.267h-68.267zm-273.067-68.267v68.267h68.267v-68.267zm546.133-546.133v-68.267h-68.267v68.267zM203.659 552.408h-68.267v68.267h68.267zm-68.266 136.533v68.267h68.267v-68.267zm750.933-273.067h68.267v-68.267h-68.267zM544.993 757.208h68.267v-68.267h-68.267zm-341.334 0v68.267h68.267v-68.267zm68.267 68.266v68.267h68.267v-68.267zm409.6-546.133v-68.267h-68.267v68.267zm-614.4 477.867v68.267h68.267v-68.267zm750.933 0h68.267v-68.267h-68.267zM135.393 620.674H67.126v68.267h68.267zm0 204.8v68.267h68.267v-68.267zm409.6-546.133v-68.267h-68.267v68.267zm-136.534-68.267h-68.267v68.267h68.267zm273.067 409.6h68.267v-68.267h-68.267zM340.193 279.341h-68.267v68.267h68.267zm273.066 409.6h68.267v-68.267h-68.267zm-273.066 204.8v68.267h68.267v-68.267zm-136.534 0v68.267h68.267v-68.267zm546.134-341.333h68.267v-68.267h-68.267zm68.266-136.534v-68.267h-68.267v68.267zM271.926 74.541h-68.267v68.267h68.267zm341.333 750.933h68.267v-68.267h-68.267zm-409.6-682.666h-68.267v68.267h68.267zm273.067 614.4v68.267h68.267v-68.267zm273.067-68.267h68.267v-68.267h-68.267zm-614.4-477.867H67.126v68.267h68.267zm546.133 546.134h68.267v-68.267h-68.267zm-409.6-273.067h-68.267v68.267h68.267zm0-136.533h-68.267v68.267h68.267zm-68.267 273.066v68.267h68.267v-68.267zm-68.266-136.533H67.126v68.267h68.267zm136.533 204.8v68.267h68.267v-68.267zM135.393 347.608H67.126v68.267h68.267zm204.8 409.6v68.267h68.267v-68.267z"/>
  </g>
  <g id="Shapes">
    <path id="light__x28_shapes_x29_" fill="#c4c4c4" d="m856.777 714.033-.138-.252-114.006-197.216V238.476c0-21.233-17.275-38.508-38.509-38.508H347.22c-21.234 0-38.509 17.275-38.509 38.508v169.279c-84.234 28.719-144.986 108.623-144.986 202.453 0 117.903 95.921 213.824 213.823 213.824 59.454 0 115.584-24.469 156.028-67.554h298.086c10.046 0 19.479-5.378 24.616-14.034 5.143-8.664 5.333-19.551.498-28.411Z"/>
    <path id="dark__x28_shapes_x29_" fill="#767676" d="m850.745 717.325-.097-.178-114.887-198.74V238.476c0-17.444-14.192-31.637-31.637-31.637H347.22c-17.444 0-31.637 14.192-31.637 31.637V412.73c-83.937 26.396-144.986 104.941-144.986 197.478 0 114.113 92.838 206.952 206.951 206.952 58.54 0 113.76-24.497 153.045-67.554h301.068c7.633 0 14.801-4.088 18.707-10.669 3.97-6.688 4.11-14.769.375-21.612Z"/>
    <path id="yellow" fill="#fc0" d="M210.416 610.228c0 92.16 74.973 167.113 167.123 167.113 28.728 0 56.464-7.322 80.934-20.861h-4.806c-10.039 0-19.476-5.371-24.616-14.025-5.14-8.664-5.331-19.546-.502-28.411l.271-.492 100.377-173.947-.039-.086a165 165 0 0 0-2.532-5.161l-.093-.184c-12.885-25.082-31.92-46.53-55.568-62.497-27.698-18.703-59.994-28.582-93.415-28.582-92.16 0-167.133 74.973-167.133 167.133Z"/>
    <path id="blue" fill="#39f" d="M642.514 436.68 484.919 709.777h315.452z"/>
    <path id="red" fill="#f33" d="M355.413 397.532a216 216 0 0 1 22.127-1.147c42.767 0 84.107 12.65 119.551 36.584 23.659 15.976 43.698 36.255 59.187 59.705l61.63-106.802.271-.432c5.522-8.684 15.25-13.854 25.399-13.513 10.019.341 18.904 5.762 23.833 14.527l28.521 49.343V246.668h-340.52v150.864Z"/>
    <path id="top__x28_shapes_x29_" fill="#999" d="M377.549 817.16c-114.113 0-206.952-92.839-206.952-206.952 0-92.536 61.05-171.082 144.986-197.477V238.476c0-17.444 14.192-31.637 31.637-31.637h356.904c17.444 0 31.637 14.192 31.637 31.637v279.931l114.887 198.74.097.178c3.734 6.844 3.595 14.923-.376 21.611-3.905 6.581-11.073 10.67-18.706 10.67H530.595c-39.286 43.057-94.505 67.554-153.045 67.554Zm0-380.948c-95.942 0-173.997 78.055-173.997 173.996s78.054 173.997 173.997 173.997c38.033 0 74.402-12.3 104.217-34.599h-28.09c-7.633 0-14.801-4.089-18.707-10.67-3.97-6.688-4.11-14.768-.375-21.611l.192-.343 102.141-177.01c-28.004-63.127-90.259-103.761-159.378-103.761Zm95.476 280.439h339.271L642.507 422.938zm-95.476-313.394c41.391 0 81.402 12.244 115.706 35.408 26.068 17.603 47.596 40.595 63.256 67.37l67.284-116.604.194-.305c4.227-6.633 11.641-10.588 19.369-10.329 7.605.258 14.349 4.387 18.091 11.06l41.357 71.544V239.795H348.538v165.489a208 208 0 0 1 29.01-2.027Z"/>
  </g>
</svg>
